<?xml version="1.0" standalone="no"?><!DOCTYPE svg PUBLIC "-//W3C//DTD SVG 1.1//EN" "http://www.w3.org/Graphics/SVG/1.1/DTD/svg11.dtd"><svg t="1586234885252" class="icon" viewBox="0 0 1024 1024" version="1.1" xmlns="http://www.w3.org/2000/svg" p-id="1191" width="48" height="48" xmlns:xlink="http://www.w3.org/1999/xlink"><defs><style type="text/css"></style></defs><path d="M464.32 698.976l37.856-101.088L389.664 268.8H268.8v492.384h59.104V300.96l136.384 398.016zM204.8 76.8a128 128 0 0 0-128 128v614.4a128 128 0 0 0 128 128h614.4a128 128 0 0 0 128-128V204.8a128 128 0 0 0-128-128H204.8z m0-76.8h614.4A204.8 204.8 0 0 1 1024 204.8v614.4a204.8 204.8 0 0 1-204.8 204.8H204.8A204.8 204.8 0 0 1 0 819.2V204.8A204.8 204.8 0 0 1 204.8 0z m148.704 454.624v332.16H243.2V243.2h164.736l115.648 338.144L642.784 243.2h147.168v543.616H664.96V457.44l-104.512 294.72h-104.992l-101.952-297.536z" fill="#2c2c2c" p-id="1192"></path></svg>